<mxfile host="app.diagrams.net" modified="2023-07-14T11:48:16.426Z" agent="Mozilla/5.0 (Windows NT 10.0; Win64; x64) AppleWebKit/537.36 (KHTML, like Gecko) Chrome/113.0.0.0 Safari/537.36 OPR/99.0.0.0" etag="iqYN1ECnJjgZZctIkrMM" version="21.2.2" type="github">
  <diagram id="prtHgNgQTEPvFCAcTncT" name="Page-1">
    <mxGraphModel dx="2467" dy="892" grid="1" gridSize="10" guides="1" tooltips="1" connect="1" arrows="1" fold="1" page="1" pageScale="1" pageWidth="827" pageHeight="1169" math="0" shadow="0">
      <root>
        <mxCell id="0" />
        <mxCell id="1" parent="0" />
        <mxCell id="nrGdR_1pjIEmIiAJ3sSZ-1" value="CosmosDB" style="shape=cylinder3;whiteSpace=wrap;html=1;boundedLbl=1;backgroundOutline=1;size=15;" vertex="1" parent="1">
          <mxGeometry x="-680" y="120" width="80" height="80" as="geometry" />
        </mxCell>
        <mxCell id="nrGdR_1pjIEmIiAJ3sSZ-4" value="API Gateway" style="sketch=0;html=1;dashed=0;whitespace=wrap;fillColor=#2875E2;strokeColor=#ffffff;points=[[0.005,0.63,0],[0.1,0.2,0],[0.9,0.2,0],[0.5,0,0],[0.995,0.63,0],[0.72,0.99,0],[0.5,1,0],[0.28,0.99,0]];verticalLabelPosition=bottom;align=center;verticalAlign=top;shape=mxgraph.kubernetes.icon;prIcon=api" vertex="1" parent="1">
          <mxGeometry x="-560" y="240" width="70" height="60" as="geometry" />
        </mxCell>
        <mxCell id="nrGdR_1pjIEmIiAJ3sSZ-5" value="Event Hub" style="image;aspect=fixed;html=1;points=[];align=center;fontSize=12;image=img/lib/azure2/analytics/Event_Hub_Clusters.svg;" vertex="1" parent="1">
          <mxGeometry x="-673.85" y="240" width="73.85" height="60" as="geometry" />
        </mxCell>
        <mxCell id="nrGdR_1pjIEmIiAJ3sSZ-6" value="Vault" style="sketch=0;outlineConnect=0;fontColor=#232F3E;gradientColor=none;strokeColor=#232F3E;fillColor=#ffffff;dashed=0;verticalLabelPosition=bottom;verticalAlign=top;align=center;html=1;fontSize=12;fontStyle=0;aspect=fixed;shape=mxgraph.aws4.resourceIcon;resIcon=mxgraph.aws4.vault;" vertex="1" parent="1">
          <mxGeometry x="-560" y="120" width="60" height="60" as="geometry" />
        </mxCell>
        <mxCell id="nrGdR_1pjIEmIiAJ3sSZ-9" value="CASE 3" style="text;strokeColor=none;fillColor=none;html=1;fontSize=24;fontStyle=1;verticalAlign=middle;align=center;" vertex="1" parent="1">
          <mxGeometry x="-480" y="40" width="120" height="40" as="geometry" />
        </mxCell>
        <mxCell id="nrGdR_1pjIEmIiAJ3sSZ-10" value="" style="edgeStyle=elbowEdgeStyle;elbow=vertical;endArrow=classic;html=1;curved=0;rounded=0;endSize=8;startSize=8;entryX=0.5;entryY=1;entryDx=0;entryDy=0;entryPerimeter=0;exitX=0.458;exitY=1.083;exitDx=0;exitDy=0;exitPerimeter=0;" edge="1" parent="1" source="nrGdR_1pjIEmIiAJ3sSZ-5" target="nrGdR_1pjIEmIiAJ3sSZ-4">
          <mxGeometry width="50" height="50" relative="1" as="geometry">
            <mxPoint x="-640" y="330" as="sourcePoint" />
            <mxPoint x="-520" y="320" as="targetPoint" />
            <Array as="points">
              <mxPoint x="-520" y="370" />
            </Array>
          </mxGeometry>
        </mxCell>
        <mxCell id="nrGdR_1pjIEmIiAJ3sSZ-15" value="api gateway&#39;in içinde service hub olarak kullanılıyor" style="text;html=1;strokeColor=none;fillColor=none;align=center;verticalAlign=middle;whiteSpace=wrap;rounded=0;" vertex="1" parent="1">
          <mxGeometry x="-640" y="380" width="120" height="60" as="geometry" />
        </mxCell>
        <mxCell id="nrGdR_1pjIEmIiAJ3sSZ-16" value="Bir yerden istek gelecek veya bir yeden çekilecek olan veri&amp;nbsp;" style="text;html=1;strokeColor=none;fillColor=none;align=center;verticalAlign=middle;whiteSpace=wrap;rounded=0;" vertex="1" parent="1">
          <mxGeometry x="-400" y="120" width="210" height="40" as="geometry" />
        </mxCell>
        <mxCell id="nrGdR_1pjIEmIiAJ3sSZ-17" value="Çekilen veri event hub&#39;dan function app&#39;a iletilecek ve function app&#39;da işlenecek." style="text;html=1;strokeColor=none;fillColor=none;align=center;verticalAlign=middle;whiteSpace=wrap;rounded=0;" vertex="1" parent="1">
          <mxGeometry x="-400" y="170" width="200" height="40" as="geometry" />
        </mxCell>
        <mxCell id="nrGdR_1pjIEmIiAJ3sSZ-21" value="&lt;font style=&quot;font-size: 18px;&quot;&gt;Örnek yapılacak uygulama&lt;/font&gt;" style="text;strokeColor=none;fillColor=none;html=1;fontSize=24;fontStyle=1;verticalAlign=middle;align=center;" vertex="1" parent="1">
          <mxGeometry x="-420" y="240" width="240" height="40" as="geometry" />
        </mxCell>
        <mxCell id="nrGdR_1pjIEmIiAJ3sSZ-22" value="Gelen cümledeki seçilen ismi getir." style="text;html=1;strokeColor=none;fillColor=none;align=center;verticalAlign=middle;whiteSpace=wrap;rounded=0;" vertex="1" parent="1">
          <mxGeometry x="-380" y="280" width="200" height="40" as="geometry" />
        </mxCell>
        <mxCell id="nrGdR_1pjIEmIiAJ3sSZ-23" value="" style="image;aspect=fixed;html=1;points=[];align=center;fontSize=12;image=img/lib/azure2/compute/Function_Apps.svg;" vertex="1" parent="1">
          <mxGeometry x="-425.34" y="280" width="45.34" height="40" as="geometry" />
        </mxCell>
        <mxCell id="nrGdR_1pjIEmIiAJ3sSZ-24" value="" style="image;aspect=fixed;html=1;points=[];align=center;fontSize=12;image=img/lib/azure2/compute/Function_Apps.svg;" vertex="1" parent="1">
          <mxGeometry x="-425.34" y="320" width="45.34" height="40" as="geometry" />
        </mxCell>
        <mxCell id="nrGdR_1pjIEmIiAJ3sSZ-25" value="Function&#39;u Cosmmos DB&#39;ye yaz." style="text;html=1;strokeColor=none;fillColor=none;align=center;verticalAlign=middle;whiteSpace=wrap;rounded=0;" vertex="1" parent="1">
          <mxGeometry x="-380" y="320" width="200" height="40" as="geometry" />
        </mxCell>
        <mxCell id="nrGdR_1pjIEmIiAJ3sSZ-27" value="&lt;br&gt;&lt;span style=&quot;color: rgb(0, 0, 0); font-family: Helvetica; font-size: 12px; font-style: normal; font-variant-ligatures: normal; font-variant-caps: normal; font-weight: 400; letter-spacing: normal; orphans: 2; text-align: center; text-indent: 0px; text-transform: none; widows: 2; word-spacing: 0px; -webkit-text-stroke-width: 0px; background-color: rgb(251, 251, 251); text-decoration-thickness: initial; text-decoration-style: initial; text-decoration-color: initial; float: none; display: inline !important;&quot;&gt;** &lt;br&gt;min3 - max5 function ayzılacak&lt;br&gt;&lt;br&gt;&lt;/span&gt;**" style="text;html=1;strokeColor=none;fillColor=none;align=center;verticalAlign=middle;whiteSpace=wrap;rounded=0;" vertex="1" parent="1">
          <mxGeometry x="-345" y="370" width="90" height="90" as="geometry" />
        </mxCell>
        <mxCell id="nrGdR_1pjIEmIiAJ3sSZ-30" value="" style="shape=flexArrow;endArrow=classic;html=1;rounded=0;" edge="1" parent="1">
          <mxGeometry width="50" height="50" relative="1" as="geometry">
            <mxPoint x="-730" y="500" as="sourcePoint" />
            <mxPoint x="-670" y="500" as="targetPoint" />
          </mxGeometry>
        </mxCell>
        <mxCell id="nrGdR_1pjIEmIiAJ3sSZ-31" value="&lt;font style=&quot;font-size: 14px;&quot;&gt;Bu bilgiler ışığında bir görev oluştur ve işleyiş şemasını oluştur.&lt;/font&gt;" style="text;html=1;strokeColor=none;fillColor=none;align=center;verticalAlign=middle;whiteSpace=wrap;rounded=0;" vertex="1" parent="1">
          <mxGeometry x="-350" y="480" width="190" height="80" as="geometry" />
        </mxCell>
        <mxCell id="nrGdR_1pjIEmIiAJ3sSZ-32" value="Kullanıcının login işlemleri key Vault ile yapılacak" style="text;html=1;strokeColor=none;fillColor=none;align=center;verticalAlign=middle;whiteSpace=wrap;rounded=0;" vertex="1" parent="1">
          <mxGeometry x="-650" y="480" width="200" height="40" as="geometry" />
        </mxCell>
        <mxCell id="nrGdR_1pjIEmIiAJ3sSZ-33" value="" style="shape=flexArrow;endArrow=classic;html=1;rounded=0;" edge="1" parent="1">
          <mxGeometry width="50" height="50" relative="1" as="geometry">
            <mxPoint x="-733.85" y="550" as="sourcePoint" />
            <mxPoint x="-673.85" y="550" as="targetPoint" />
          </mxGeometry>
        </mxCell>
        <mxCell id="nrGdR_1pjIEmIiAJ3sSZ-34" value="Apılere erişim için key vault değerleri kullanılabilir." style="text;html=1;strokeColor=none;fillColor=none;align=center;verticalAlign=middle;whiteSpace=wrap;rounded=0;" vertex="1" parent="1">
          <mxGeometry x="-650" y="530" width="200" height="40" as="geometry" />
        </mxCell>
        <mxCell id="nrGdR_1pjIEmIiAJ3sSZ-38" value="***&lt;br&gt;Yazılan functionlarda en az iki dil kullanılacak.&lt;br&gt;&lt;br&gt;***" style="text;html=1;strokeColor=none;fillColor=none;align=center;verticalAlign=middle;whiteSpace=wrap;rounded=0;" vertex="1" parent="1">
          <mxGeometry x="-160" y="120" width="80" height="120" as="geometry" />
        </mxCell>
      </root>
    </mxGraphModel>
  </diagram>
</mxfile>
